<svg width="180" height="180" viewBox="0 0 180 180" fill="none" xmlns="http://www.w3.org/2000/svg">
<path d="M12.1155 77.3077C12.1149 74.79 12.6636 72.3025 13.7233 70.0187C14.783 67.7349 16.3282 65.7098 18.2511 64.0846L78.828 12.1615C81.9519 9.52131 85.9099 8.07275 90.0001 8.07275C94.0903 8.07275 98.0483 9.52131 101.172 12.1615L161.749 64.0846C163.672 65.7098 165.217 67.7349 166.277 70.0187C167.337 72.3025 167.885 74.79 167.885 77.3077V155.192C167.885 159.783 166.061 164.185 162.815 167.431C159.57 170.677 155.167 172.5 150.577 172.5H29.4232C24.8329 172.5 20.4306 170.677 17.1848 167.431C13.939 164.185 12.1155 159.783 12.1155 155.192V77.3077Z" fill="#FE8128"/>
<path d="M12.1155 77.3077C12.1149 74.79 12.6636 72.3025 13.7233 70.0187C14.783 67.7349 16.3282 65.7098 18.2511 64.0846L78.828 12.1615C81.9519 9.52131 85.9099 8.07275 90.0001 8.07275C94.0903 8.07275 98.0483 9.52131 101.172 12.1615L161.749 64.0846C163.672 65.7098 165.217 67.7349 166.277 70.0187C167.337 72.3025 167.885 74.79 167.885 77.3077V155.192C167.885 159.783 166.061 164.185 162.815 167.431C159.57 170.677 155.167 172.5 150.577 172.5H29.4232C24.8329 172.5 20.4306 170.677 17.1848 167.431C13.939 164.185 12.1155 159.783 12.1155 155.192V77.3077Z" fill="url(#paint0_linear_43_57)" fill-opacity="0.4" style="mix-blend-mode:color-burn"/>
<path d="M56.3697 110.586C54.276 108.403 52.6462 105.818 51.5788 102.988C50.5113 100.158 50.0283 97.1412 50.1588 94.1194C50.2893 91.0976 51.0307 88.1335 52.3382 85.4061C53.6457 82.6786 55.4922 80.2444 57.7663 78.2502C60.0404 76.2559 62.695 74.7431 65.5698 73.803C68.4446 72.8628 71.4801 72.5149 74.4931 72.7801C77.5061 73.0453 80.4341 73.9182 83.1005 75.346C85.7669 76.7739 88.1164 78.7272 90.0072 81.088C91.907 78.7518 94.2586 76.8229 96.9212 75.4165C99.5837 74.0101 102.503 73.1551 105.503 72.9028C108.504 72.6505 111.524 73.006 114.384 73.948C117.245 74.89 119.885 76.3992 122.149 78.3853C124.412 80.3714 126.251 82.7936 127.557 85.5071C128.863 88.2205 129.607 91.1693 129.747 94.1773C129.887 97.1852 129.418 100.19 128.37 103.013C127.321 105.836 125.714 108.418 123.645 110.605L97.5109 139.028C96.5786 140.102 95.4266 140.962 94.1329 141.552C92.8393 142.142 91.434 142.448 90.0121 142.448C88.5903 142.448 87.185 142.142 85.8913 141.552C84.5976 140.962 83.4457 140.102 82.5134 139.028L56.3697 110.586Z" fill="white"/>
<defs>
<linearGradient id="paint0_linear_43_57" x1="90.0001" y1="8.07275" x2="90.0001" y2="172.5" gradientUnits="userSpaceOnUse">
<stop stop-opacity="0"/>
<stop offset="1"/>
</linearGradient>
</defs>
</svg>
