<svg width="180" height="180" viewBox="0 0 180 180" fill="none" xmlns="http://www.w3.org/2000/svg">
<g clip-path="url(#clip0_43_57)">
<mask id="mask0_43_57" style="mask-type:luminance" maskUnits="userSpaceOnUse" x="5" y="5" width="170" height="170">
<path d="M174.375 5.62469H5.62549V174.375H174.375V5.62469Z" fill="white"/>
</mask>
<g mask="url(#mask0_43_57)">
<path d="M90.0005 174.375C136.6 174.375 174.375 136.599 174.375 89.9997C174.375 43.4006 136.6 5.62469 90.0005 5.62469C43.4014 5.62469 5.62549 43.4006 5.62549 89.9997C5.62549 136.599 43.4014 174.375 90.0005 174.375Z" fill="#FE8128"/>
</g>
</g>
<g clip-path="url(#clip1_43_57)">
<mask id="mask1_43_57" style="mask-type:luminance" maskUnits="userSpaceOnUse" x="5" y="5" width="170" height="170">
<path d="M174.375 5.62463H5.62549V174.375H174.375V5.62463Z" fill="white"/>
</mask>
<g mask="url(#mask1_43_57)">
<path d="M90.0005 174.375C136.6 174.375 174.375 136.599 174.375 89.9996C174.375 43.4006 136.6 5.62463 90.0005 5.62463C43.4014 5.62463 5.62549 43.4006 5.62549 89.9996C5.62549 136.599 43.4014 174.375 90.0005 174.375Z" fill="#FE8128"/>
</g>
<path d="M72.6709 99.2285C71.5922 98.104 70.7527 96.7725 70.2027 95.3146C69.6528 93.8566 69.404 92.3024 69.4712 90.7456C69.5384 89.1889 69.9204 87.6619 70.594 86.2568C71.2676 84.8517 72.2188 83.5976 73.3904 82.5702C74.5619 81.5429 75.9295 80.7635 77.4105 80.2792C78.8915 79.7949 80.4553 79.6156 82.0076 79.7522C83.5598 79.8888 85.0682 80.3385 86.4419 81.0741C87.8155 81.8097 89.0259 82.816 90 84.0322C90.9787 82.8287 92.1902 81.8349 93.5619 81.1104C94.9335 80.3859 96.4373 79.9454 97.9831 79.8155C99.5289 79.6855 101.085 79.8686 102.558 80.3539C104.032 80.8392 105.392 81.6167 106.558 82.6399C107.724 83.6631 108.672 84.9109 109.345 86.3088C110.017 87.7067 110.401 89.2258 110.473 90.7755C110.545 92.3251 110.304 93.8733 109.763 95.3275C109.223 96.7816 108.395 98.1119 107.329 99.2388L93.8657 113.881C93.3854 114.434 92.7919 114.878 92.1254 115.182C91.459 115.486 90.735 115.643 90.0025 115.643C89.27 115.643 88.5461 115.486 87.8796 115.182C87.2131 114.878 86.6197 114.434 86.1394 113.881L72.6709 99.2285Z" stroke="white" stroke-width="8.4375" stroke-linecap="round" stroke-linejoin="round"/>
<path d="M43.8574 79.7461C43.8571 78.2545 44.1821 76.7808 44.8099 75.4277C45.4378 74.0747 46.3532 72.8749 47.4924 71.9121L83.3811 41.1504C85.2319 39.5862 87.5768 38.728 90 38.728C92.4232 38.728 94.7681 39.5862 96.6189 41.1504L132.508 71.9121C133.647 72.8749 134.562 74.0747 135.19 75.4277C135.818 76.7808 136.143 78.2545 136.143 79.7461V125.889C136.143 128.608 135.062 131.216 133.139 133.139C131.216 135.062 128.608 136.143 125.889 136.143H54.1113C51.3918 136.143 48.7837 135.062 46.8607 133.139C44.9377 131.216 43.8574 128.608 43.8574 125.889V79.7461Z" stroke="white" stroke-width="8.4375" stroke-linecap="round" stroke-linejoin="round"/>
</g>
<defs>
<clipPath id="clip0_43_57">
<rect width="168.75" height="168.75" fill="white" transform="translate(5.625 5.625)"/>
</clipPath>
<clipPath id="clip1_43_57">
<rect width="168.75" height="168.75" fill="white" transform="translate(5.625 5.625)"/>
</clipPath>
</defs>
</svg>
