<svg width="180" height="180" viewBox="0 0 180 180" fill="none" xmlns="http://www.w3.org/2000/svg">
<path d="M12.1155 77.3077C12.1149 74.79 12.6636 72.3025 13.7233 70.0187C14.783 67.7349 16.3282 65.7098 18.2511 64.0846L78.828 12.1615C81.9519 9.52131 85.9099 8.07275 90.0001 8.07275C94.0903 8.07275 98.0483 9.52131 101.172 12.1615L161.749 64.0846C163.672 65.7098 165.217 67.7349 166.277 70.0187C167.337 72.3025 167.885 74.79 167.885 77.3077V155.192C167.885 159.783 166.061 164.185 162.815 167.431C159.57 170.677 155.167 172.5 150.577 172.5H29.4232C24.8329 172.5 20.4306 170.677 17.1848 167.431C13.939 164.185 12.1155 159.783 12.1155 155.192V77.3077Z" fill="#FE8128"/>
<path d="M12.1155 77.3077C12.1149 74.79 12.6636 72.3025 13.7233 70.0187C14.783 67.7349 16.3282 65.7098 18.2511 64.0846L78.828 12.1615C81.9519 9.52131 85.9099 8.07275 90.0001 8.07275C94.0903 8.07275 98.0483 9.52131 101.172 12.1615L161.749 64.0846C163.672 65.7098 165.217 67.7349 166.277 70.0187C167.337 72.3025 167.885 74.79 167.885 77.3077V155.192C167.885 159.783 166.061 164.185 162.815 167.431C159.57 170.677 155.167 172.5 150.577 172.5H29.4232C24.8329 172.5 20.4306 170.677 17.1848 167.431C13.939 164.185 12.1155 159.783 12.1155 155.192V77.3077Z" fill="url(#paint0_linear_43_57)" fill-opacity="0.4" style="mix-blend-mode:color-burn"/>
<path d="M60.7502 110.192C58.9296 108.294 57.5124 106.047 56.5842 103.586C55.656 101.125 55.2359 98.5016 55.3494 95.8739C55.4629 93.2462 56.1076 90.6688 57.2446 88.2971C58.3815 85.9254 59.9872 83.8087 61.9647 82.0746C63.9422 80.3405 66.2505 79.025 68.7503 78.2074C71.2502 77.3899 73.8897 77.0874 76.5097 77.318C79.1297 77.5486 81.6758 78.3076 83.9944 79.5492C86.313 80.7909 88.356 82.4894 90.0002 84.5423C91.6523 82.5108 93.6971 80.8334 96.0124 79.6105C98.3276 78.3875 100.866 77.6441 103.475 77.4247C106.084 77.2053 108.711 77.5144 111.198 78.3336C113.685 79.1527 115.981 80.4651 117.949 82.1921C119.917 83.9192 121.517 86.0254 122.652 88.3849C123.787 90.7444 124.435 93.3086 124.557 95.9242C124.678 98.5398 124.271 101.153 123.359 103.608C122.447 106.062 121.05 108.308 119.25 110.21L96.5252 134.925C95.7145 135.858 94.7128 136.607 93.5878 137.12C92.4629 137.633 91.2409 137.898 90.0045 137.898C88.7681 137.898 87.5461 137.633 86.4212 137.12C85.2962 136.607 84.2946 135.858 83.4838 134.925L60.7502 110.192Z" fill="white"/>
<defs>
<linearGradient id="paint0_linear_43_57" x1="90.0001" y1="8.07275" x2="90.0001" y2="172.5" gradientUnits="userSpaceOnUse">
<stop stop-opacity="0"/>
<stop offset="1"/>
</linearGradient>
</defs>
</svg>
